<svg width="20" height="21" viewBox="0 0 20 21" fill="none" xmlns="http://www.w3.org/2000/svg">
<path fill-rule="evenodd" clip-rule="evenodd" d="M7.2741 7.29388C7.99706 6.56897 8.97759 6.16172 10 6.16172C11.0224 6.16172 12.0029 6.56897 12.7259 7.29388C13.4488 8.01879 13.855 9.00198 13.855 10.0272C13.855 11.0523 13.4488 12.0355 12.7259 12.7604C12.0029 13.4854 11.0224 13.8926 10 13.8926C8.97759 13.8926 7.99706 13.4854 7.2741 12.7604C6.55115 12.0355 6.145 11.0523 6.145 10.0272C6.145 9.00198 6.55115 8.01879 7.2741 7.29388ZM9.04233 12.3454C9.34595 12.4715 9.67137 12.5364 10 12.5364C10.6637 12.5364 11.3002 12.2721 11.7695 11.8015C12.2388 11.3309 12.5025 10.6927 12.5025 10.0272C12.5025 9.36166 12.2388 8.72341 11.7695 8.25283C11.3002 7.78225 10.6637 7.51788 10 7.51788C9.67137 7.51788 9.34595 7.58279 9.04233 7.70889C8.73872 7.83499 8.46284 8.01982 8.23046 8.25283C7.99809 8.48584 7.81375 8.76246 7.68799 9.0669C7.56223 9.37134 7.4975 9.69764 7.4975 10.0272C7.4975 10.3567 7.56223 10.683 7.68799 10.9874C7.81375 11.2919 7.99809 11.5685 8.23046 11.8015C8.46284 12.0345 8.73872 12.2193 9.04233 12.3454Z" fill="white"/>
<path d="M14.7096 6.73762C14.8805 6.56627 14.9765 6.33386 14.9765 6.09153C14.9765 5.84919 14.8805 5.61679 14.7096 5.44543C14.5387 5.27407 14.3069 5.17781 14.0652 5.17781C13.8236 5.17781 13.5918 5.27407 13.4209 5.44543C13.25 5.61679 13.154 5.84919 13.154 6.09153C13.154 6.33386 13.25 6.56627 13.4209 6.73762C13.5918 6.90898 13.8236 7.00525 14.0652 7.00525C14.3069 7.00525 14.5387 6.90898 14.7096 6.73762Z" fill="white"/>
<path fill-rule="evenodd" clip-rule="evenodd" d="M6.908 2.55196C7.708 2.51536 7.963 2.50684 10 2.50684C12.0375 2.50684 12.292 2.51586 13.0915 2.55196C13.89 2.58856 14.436 2.7164 14.913 2.9014C15.4133 3.09034 15.8664 3.38632 16.241 3.76875C16.6225 4.14442 16.9177 4.59902 17.106 5.10085C17.2915 5.57914 17.4185 6.12612 17.455 6.92678C17.4915 7.72895 17.5 7.98464 17.5 10.0272C17.5 12.0697 17.4915 12.3254 17.455 13.1275C17.4185 13.9282 17.2915 14.4752 17.1065 14.9535C16.9181 15.4551 16.6229 15.9095 16.2415 16.2851C15.8665 16.6681 15.413 16.9639 14.913 17.1524C14.436 17.3384 13.8905 17.4658 13.092 17.5024C12.292 17.539 12.037 17.5475 10 17.5475C7.963 17.5475 7.708 17.539 6.908 17.5024C6.1095 17.4658 5.564 17.3384 5.087 17.1529C4.58675 16.964 4.13358 16.668 3.759 16.2856C3.377 15.9096 3.082 15.4548 2.894 14.9535C2.7085 14.4752 2.5815 13.9282 2.545 13.1275C2.5085 12.3254 2.5 12.0702 2.5 10.0272C2.5 7.98414 2.509 7.72895 2.545 6.92728C2.5815 6.12662 2.709 5.57914 2.8935 5.10085C3.08193 4.59924 3.37711 4.14483 3.7585 3.76925C4.1335 3.38621 4.587 3.09041 5.087 2.9019C5.564 2.7159 6.1095 2.58856 6.908 2.55196ZM13.031 3.90562C12.24 3.86952 12.0025 3.862 10 3.862C7.9975 3.862 7.76 3.86952 6.969 3.90562C6.238 3.93921 5.841 4.06154 5.5765 4.16482C5.2507 4.28513 4.95597 4.47718 4.714 4.72684C4.452 4.99005 4.289 5.24073 4.1535 5.59167C4.05 5.85689 3.9285 6.25497 3.895 6.98795C3.859 7.78109 3.8515 8.01923 3.8515 10.0272C3.8515 12.0351 3.859 12.2732 3.895 13.0664C3.9285 13.7994 4.0505 14.1974 4.1535 14.4627C4.27356 14.7893 4.46509 15.0848 4.714 15.3275C4.956 15.5771 5.25073 15.7691 5.5765 15.8895C5.841 15.9933 6.238 16.1151 6.969 16.1487C7.76 16.1848 7.997 16.1923 10 16.1923C12.003 16.1923 12.24 16.1848 13.031 16.1487C13.762 16.1151 14.159 15.9928 14.4235 15.8895C14.7493 15.7692 15.044 15.5772 15.286 15.3275C15.5349 15.0848 15.7265 14.7893 15.8465 14.4627C15.95 14.1974 16.0715 13.7994 16.105 13.0664C16.141 12.2732 16.1485 12.0351 16.1485 10.0272C16.1485 8.01923 16.141 7.78109 16.105 6.98795C16.0715 6.25497 15.9495 5.85689 15.8465 5.59167C15.711 5.24073 15.5485 4.99005 15.286 4.72684C15.0235 4.46413 14.7735 4.30068 14.4235 4.16482C14.159 4.06104 13.762 3.93921 13.031 3.90562Z" fill="white"/>
</svg>
