<svg width="20" height="21" viewBox="0 0 20 21" fill="none" xmlns="http://www.w3.org/2000/svg">
<path fill-rule="evenodd" clip-rule="evenodd" d="M12.2838 0.442306C14.1702 -0.543431 16.5058 0.174656 17.4986 2.04658C18.4914 3.9185 17.7672 6.23433 15.8808 7.22007L14.3297 8.0377C15.6659 8.08667 16.9403 8.8227 17.6077 10.081C18.6005 11.9529 17.8778 14.2687 15.9898 15.2545L7.71835 19.612C5.83195 20.5977 3.49634 19.8796 2.5035 18.0077C1.51067 16.1358 2.23495 13.8199 4.12134 12.8342L5.67245 12.0166C4.33619 11.9676 3.06177 11.2316 2.39446 9.97327C1.40162 8.10135 2.1259 5.78552 4.01229 4.79979L12.2838 0.442306ZM7.81926 6.94099L12.8258 10.0402L7.81926 13.1247V6.94099Z" fill="white"/>
</svg>
